<?xml version="1.0" encoding="UTF-8"?>
<svg version="1.1" xmlns="http://www.w3.org/2000/svg" width="179" height="211">
<path d="M0 0 C2.40902191 2.18253267 3.68348955 4.19919075 5.0625 7.125 C10.56545192 17.24120503 20.29392925 23.58144921 31.07421875 26.96484375 C33.70677423 27.69629643 36.33973565 28.37792298 39 29 C38.97679688 28.33613281 38.95359375 27.67226563 38.9296875 26.98828125 C38.75043937 18.21792619 38.75043937 18.21792619 41 14 C41.66 14 42.32 14 43 14 C43.21011719 14.7528125 43.42023438 15.505625 43.63671875 16.28125 C47.40303393 27.81821545 54.69994426 36.01505828 62.71801758 44.90478516 C63.25966553 45.51370605 63.80131348 46.12262695 64.359375 46.75 C64.84760742 47.28882813 65.33583984 47.82765625 65.83886719 48.3828125 C67.76424178 51.06441076 67.82104271 53.77876882 68 57 C68.48079068 61.92810444 70.55829804 64.47825846 74 68 C76.90638203 69.45319102 78.2427636 68.94797923 81.5 68.25 C85 68 85 68 87.4375 69.8125 C90.09826026 75.24045094 89.39931155 80.40447493 88.5 86.25 C86.32083949 90.2451276 83.05558168 92.93607031 79 95 C78.01 94.67 77.02 94.34 76 94 C76.33 91.03 76.66 88.06 77 85 C76.37351563 85.28875 75.74703125 85.5775 75.1015625 85.875 C74.28429687 86.24625 73.46703125 86.6175 72.625 87 C71.81289062 87.37125 71.00078125 87.7425 70.1640625 88.125 C68 89 68 89 66 89 C66 86.69 66 84.38 66 82 C64.39125 82.0309375 64.39125 82.0309375 62.75 82.0625 C59.85209576 82.0142016 57.71387859 81.86844115 55 81 C55.99 83.31 56.98 85.62 58 88 C58.45375 87.505 58.9075 87.01 59.375 86.5 C61 85 61 85 63 85 C62.67 87.97 62.34 90.94 62 94 C64.31 94 66.62 94 69 94 C67.90508456 99.10960537 65.83928816 101.63493739 61.88671875 104.80859375 C59.32549189 106.42593162 57.00019074 106.85364923 54 107 C51.51372483 103.9377256 49.90010596 100.8542946 48.3125 97.25 C47.87550781 96.26515625 47.43851562 95.2803125 46.98828125 94.265625 C46.66214844 93.51796875 46.33601563 92.7703125 46 92 C43.45594362 92.06042889 40.91743269 92.14759028 38.375 92.25 C37.66214844 92.26417969 36.94929688 92.27835937 36.21484375 92.29296875 C31.0245167 92.53105715 28.27259983 93.86759543 24 97 C23.01 97 22.02 97 21 97 C19.56695936 94.13391871 19.69355845 92.18699217 20 89 C22.39098568 84.66080377 25.41100969 81.38960196 29 78 C22.82620824 76.98730293 18.4224714 76.2968488 13 80 C10.1177544 82.38530671 9.17108985 84.42092484 8.76171875 88.19921875 C8.57686257 94.3967655 9.34878332 98.90422095 13 104 C19.79239947 111.10832503 27.54482555 112.04795236 36.875 112.9375 C52.09808466 114.41793292 64.01204482 120.20160081 74 132 C82.62487572 143.68420037 86.21953326 155.47646758 85 170 C83.93724745 174.44128466 82.57125339 178.7141258 81 183 C93.15119934 173.97145524 101.26851044 160.19446867 106 146 C104.7315625 146.3403125 104.7315625 146.3403125 103.4375 146.6875 C98.12073507 147.17084227 94.65132431 145.05084275 90.25 142.25 C85.85003779 137.85003779 84.81351766 133.60365828 84.5625 127.5625 C84.82147784 119.98998788 87.35681256 115.29643978 92.75 110.0625 C96.79568446 106.71644518 99.81042206 106.09267103 105 106 C104.55375924 108.90056497 103.81839832 110.23835221 102 112.625 C99.40916043 116.99704177 98.95661543 120.95871347 99 126 C99.33 126.99 99.66 127.98 100 129 C103.35458155 129.76522801 103.35458155 129.76522801 107 130 C111.20293914 126.88820852 112.02357935 121.88879108 113 117 C113.87441452 107.63316571 112.31617923 98.260261 111 89 C111.99 89 112.98 89 114 89 C114.81822733 91.37316118 115.62968707 93.7482942 116.4375 96.125 C116.78264648 97.12273437 116.78264648 97.12273437 117.13476562 98.140625 C121.54566738 111.18155192 121.49837004 126.71021497 118 140 C117.75507813 140.98613281 117.51015625 141.97226563 117.2578125 142.98828125 C113.49013194 156.6419555 106.86897848 168.98901275 98 180 C97.22785156 180.9796875 96.45570313 181.959375 95.66015625 182.96875 C82.55566701 198.56093006 61.46374273 208.24235772 41.640625 210.6875 C14.96437736 212.97730666 -10.41062375 205.8251376 -31.0703125 188.65234375 C-48.19008288 173.15324497 -57.99486068 152.11735566 -59.19921875 129.2109375 C-59.45522992 121.60058477 -59.0235726 114.53489483 -57.1875 107.125 C-57.0222583 106.45331787 -56.8570166 105.78163574 -56.68676758 105.08959961 C-55.71310784 101.53448152 -54.70126412 99.46140851 -52 97 C-52.15855469 98.2684375 -52.31710938 99.536875 -52.48046875 100.84375 C-55.27857443 126.29011068 -50.9633075 150.37973654 -35 171 C-30.81895135 175.8281157 -26.32476739 180.45015507 -21 184 C-20.01 184 -19.02 184 -18 184 C-17.1185312 181.35559361 -16.83825182 179.71939248 -16.8125 177 C-16.79832031 176.319375 -16.78414062 175.63875 -16.76953125 174.9375 C-16.89059589 172.67385868 -16.89059589 172.67385868 -19 170 C-21.55183404 168.79549696 -21.55183404 168.79549696 -24 168 C-24 167.34 -24 166.68 -24 166 C-19.56865993 163.78432997 -14.81764582 164.73669033 -10.3125 166.1875 C-5.58338127 168.775131 -1.93408312 171.88976203 0 177 C0.02094658 180.35564264 -0.19378372 183.65632981 -0.41796875 187.00390625 C-0.32049606 190.1631655 -0.32049606 190.1631655 2.26171875 191.875 C6.02992283 193.4231352 8.99511791 193.72816038 13 193 C16.23070601 191.14406251 17.62775072 189.99266475 18.9375 186.5 C19.01043548 183.58258071 18.76483484 182.3263732 17 180 C14.46229997 178.71745356 14.46229997 178.71745356 12 178 C12 177.34 12 176.68 12 176 C17.06457803 172.88333659 21.20710026 172.24984032 27 173 C31.95949882 174.71674959 35.28250308 177.53208692 38 182 C40.08993673 186.83894065 41.32964337 191.77121832 42 197 C42.64834654 195.730447 43.29357815 194.45930294 43.9375 193.1875 C44.47697266 192.12595703 44.47697266 192.12595703 45.02734375 191.04296875 C48.09254126 184.60482298 48.20761627 176.86749522 46.09375 170.09765625 C42.54792751 162.54005383 38.2697127 158.4882954 30.3034668 155.59106445 C26.15515661 154.52661729 22.05792796 154.86926197 17.8125 155.0625 C5.82720121 155.32521155 -4.20894445 153.38128357 -14 146 C-14.88751953 145.37351563 -14.88751953 145.37351563 -15.79296875 144.734375 C-25.66444296 137.15099084 -30.94855067 124.82457928 -32.75 112.75 C-32.8325 111.8425 -32.915 110.935 -33 110 C-35.46234985 112.98999625 -36.8405175 115.79139023 -38.125 119.4375 C-38.45757812 120.36433594 -38.79015625 121.29117188 -39.1328125 122.24609375 C-39.94400805 124.82218774 -40.52746738 127.34320946 -41 130 C-41.66 130 -42.32 130 -43 130 C-48.66484345 114.08448744 -46.94675951 96.94361788 -39.875 81.75 C-34.76152787 72.16761105 -27.83063864 63.95213819 -18 59 C-14.4375 58.125 -14.4375 58.125 -12 58 C-14.16005188 54.75992218 -15.16871676 54.29553918 -18.82470703 53.37988281 C-23.16499676 52.62191527 -27.54141231 52.51923254 -31.9375 52.375 C-33.3925293 52.31699219 -33.3925293 52.31699219 -34.87695312 52.2578125 C-37.25112076 52.16424924 -39.62529492 52.07850792 -42 52 C-38.89909706 45.24620549 -31.99825421 42.26191323 -25.37109375 39.47265625 C-16.17048259 36.106579 -8.35708778 34.84725953 1.375 34.9375 C2.76525391 34.94426758 2.76525391 34.94426758 4.18359375 34.95117188 C6.45579709 34.96288426 8.72786388 34.97928628 11 35 C10.31292969 34.14277344 9.62585938 33.28554688 8.91796875 32.40234375 C8.00740778 31.24771489 7.09727427 30.09274883 6.1875 28.9375 C5.73568359 28.37611328 5.28386719 27.81472656 4.81835938 27.23632812 C0.16905844 21.29744006 -2.4290364 15.88786688 -2.3125 8.1875 C-2.30863281 7.06730469 -2.30476563 5.94710938 -2.30078125 4.79296875 C-2 2 -2 2 0 0 Z M50 55 C50.26676204 56.98491642 50.26676204 56.98491642 51 59 C51.99 59.33 52.98 59.66 54 60 C54.66 59.67 55.32 59.34 56 59 C55.34 57.68 54.68 56.36 54 55 C52.68 55 51.36 55 50 55 Z " fill="#BBE193" transform="translate(59,0)"/>
<path d="M0 0 C0.99 0 1.98 0 3 0 C3.81822733 2.37316118 4.62968707 4.7482942 5.4375 7.125 C5.66759766 7.79015625 5.89769531 8.4553125 6.13476562 9.140625 C8.61369051 16.46962032 9.13786171 23.17651121 9.0625 30.875 C9.05798828 31.75414063 9.05347656 32.63328125 9.04882812 33.5390625 C9.03712337 35.69273803 9.01919069 37.84637817 9 40 C8.34 40 7.68 40 7 40 C7 41.32 7 42.64 7 44 C3.535 43.505 3.535 43.505 0 43 C-0.33 43.99 -0.66 44.98 -1 46 C-2.3921875 45.4740625 -2.3921875 45.4740625 -3.8125 44.9375 C-6.9802953 43.67617372 -6.9802953 43.67617372 -10 45 C-12.90071706 43.54964147 -13.57724435 41.90737025 -15 39 C-16.77536142 32.45335475 -15.55053486 29.12775389 -12.2265625 23.296875 C-11.08867172 21.16604768 -10.46487579 19.35681215 -10 17 C-8.68 17 -7.36 17 -6 17 C-6.44624076 19.90056497 -7.18160168 21.23835221 -9 23.625 C-11.59083957 27.99704177 -12.04338457 31.95871347 -12 37 C-11.67 37.99 -11.34 38.98 -11 40 C-7.64541845 40.76522801 -7.64541845 40.76522801 -4 41 C0.20293914 37.88820852 1.02357935 32.88879108 2 28 C2.87441452 18.63316571 1.31617923 9.260261 0 0 Z " fill="#C2E19D" transform="translate(170,89)"/>
<path d="M0 0 C-0.33 2.97 -0.66 5.94 -1 9 C1.31 9 3.62 9 6 9 C4.90508456 14.10960537 2.83928816 16.63493739 -1.11328125 19.80859375 C-3.67450811 21.42593162 -5.99980926 21.85364923 -9 22 C-12.69121249 17.45363858 -14.65004247 12.33503871 -17 7 C-25.415 7.495 -25.415 7.495 -34 8 C-34.33 7.34 -34.66 6.68 -35 6 C-30.86726493 4.02791539 -27.43424683 3.70201989 -22.875 3.6875 C-21.65554687 3.67074219 -20.43609375 3.65398437 -19.1796875 3.63671875 C-16 4 -16 4 -14.1328125 5.33203125 C-13 7 -13 7 -12 10 C-11.34 10.66 -10.68 11.32 -10 12 C-9.4375 13.9375 -9.4375 13.9375 -9 16 C-8.67 16.99 -8.34 17.98 -8 19 C-5.55519921 18.81171228 -5.55519921 18.81171228 -3 18 C-1.53195637 16.14853436 -1.53195637 16.14853436 -1 14 C-1.83333333 11.83333333 -1.83333333 11.83333333 -4 11 C-4.73075648 8.6859378 -5.40138258 6.35171131 -6 4 C-2.25 0 -2.25 0 0 0 Z " fill="#C4E0A2" transform="translate(122,85)"/>
<path d="M0 0 C0.66 0 1.32 0 2 0 C2.17015625 1.08796875 2.3403125 2.1759375 2.515625 3.296875 C3.81963233 11.31203927 5.3450938 18.92120737 8.1328125 26.58203125 C8.89630993 28.71088219 9.49684917 30.79743157 10 33 C10.66 33 11.32 33 12 33 C12.433125 34.11375 12.86625 35.2275 13.3125 36.375 C14.69911119 40.17512334 14.69911119 40.17512334 18 42 C19.02137457 43.65365406 20.01612294 45.32376502 21 47 C22.95466519 49.70144753 24.97114549 52.35395351 27 55 C26.34 55.66 25.68 56.32 25 57 C10.00390794 40.22158552 1.31462735 22.6946195 0 0 Z " fill="#CCEAA9" transform="translate(0,129)"/>
<path d="M0 0 C0.66 0 1.32 0 2 0 C2.21011719 0.7528125 2.42023438 1.505625 2.63671875 2.28125 C5.96142737 12.46548757 11.73855086 19.47210063 18.77246094 27.39697266 C20 29 20 29 21 32 C20.34 32 19.68 32 19 32 C18.67 32.66 18.34 33.32 18 34 C17.773125 33.47535156 17.54625 32.95070312 17.3125 32.41015625 C15.54217697 29.1592952 13.28273727 26.33657633 11 23.4375 C8.57888121 20.34192668 6.1818227 17.27273406 4 14 C3.34 14 2.68 14 2 14 C1.8046875 11.94921875 1.609375 9.8984375 1.4140625 7.84765625 C1.27742188 7.23792969 1.14078125 6.62820312 1 6 C0.34 5.67 -0.32 5.34 -1 5 C-0.67 3.35 -0.34 1.7 0 0 Z " fill="#C5E4A3" transform="translate(100,14)"/>
<path d="M0 0 C0.99 0 1.98 0 3 0 C3.86524753 2.43407005 4.71742865 4.87143184 5.5625 7.3125 C5.80935547 8.00279297 6.05621094 8.69308594 6.31054688 9.40429688 C8.11328125 14.66015625 8.11328125 14.66015625 7 18 C7 17.34 7 16.68 7 16 C6.34 16 5.68 16 5 16 C5.10699219 16.64066406 5.21398437 17.28132813 5.32421875 17.94140625 C6.16686266 24.02112734 5.93920515 27.59186252 3 33 C2.67 33 2.34 33 2 33 C2.02320313 31.9584375 2.04640625 30.916875 2.0703125 29.84375 C2.22251731 19.7209411 1.50845039 10.00695217 0 0 Z " fill="#CDE7AA" transform="translate(170,89)"/>
<path d="M0 0 C0.33 0.66 0.66 1.32 1 2 C2.32796291 2.35412344 3.66216607 2.68521554 5 3 C5.99 3.66 6.98 4.32 8 5 C8 5.66 8 6.32 8 7 C8.66 7.66 9.32 8.32 10 9 C9.0925 9.4125 8.185 9.825 7.25 10.25 C3.19403163 12.43398297 0.66992331 14.16887629 -0.9375 18.5625 C-1.26240741 21.06703018 -1.26240741 21.06703018 0.4375 22.8125 C0.953125 23.204375 1.46875 23.59625 2 24 C0.68 24.33 -0.64 24.66 -2 25 C-3.43304064 22.13391871 -3.30644155 20.18699217 -3 17 C-0.60901432 12.66080377 2.41100969 9.38960196 6 6 C-0.29253831 4.96782474 -4.37161516 4.48225948 -10 8 C-10.66 8 -11.32 8 -12 8 C-12 7.01 -12 6.02 -12 5 C-8.49223216 3.39644899 -5.85645121 2.77963136 -2 3 C-2 2.34 -2 1.68 -2 1 C-1.34 0.67 -0.68 0.34 0 0 Z " fill="#C3DEA4" transform="translate(82,72)"/>
<path d="M0 0 C0.66 0 1.32 0 2 0 C1.36637353 4.62279597 -0.48305898 8.50334706 -2.5625 12.625 C-2.91675049 13.32995605 -3.27100098 14.03491211 -3.63598633 14.76123047 C-6.83825323 20.97070233 -10.63435783 26.54294728 -15 32 C-15.52078125 32.66128906 -16.0415625 33.32257813 -16.578125 34.00390625 C-17.67979523 35.36833116 -18.83273611 36.69124958 -20 38 C-20.33 38 -20.66 38 -21 38 C-21.375 35.8125 -21.375 35.8125 -21 33 C-19.54509006 31.73907805 -18.08105937 30.48348733 -16.53515625 29.3359375 C-14.19962402 27.30348961 -13.17778248 24.81359149 -12 22 C-11.34 22 -10.68 22 -10 22 C-8.47700477 19.06279492 -7.19899698 16.0831351 -6 13 C-5.34 13 -4.68 13 -4 13 C-4 11.35 -4 9.7 -4 8 C-3.34 8 -2.68 8 -2 8 C-1.855625 7.236875 -1.71125 6.47375 -1.5625 5.6875 C-1 3 -1 3 0 0 Z " fill="#C5E1A6" transform="translate(172,148)"/>
<path d="M0 0 C3.83014625 3.2829825 6.58105521 7.14060005 8 12 C7.0625 14.6875 7.0625 14.6875 5 17 C4.2575 17.886875 3.515 18.77375 2.75 19.6875 C-0.45382386 22.38162461 -2.90637731 23.24192172 -7 24 C-7.99 23.67 -8.98 23.34 -10 23 C-10.33 22.34 -10.66 21.68 -11 21 C-11.99 20.67 -12.98 20.34 -14 20 C-13.67 19.34 -13.34 18.68 -13 18 C-12.01 18.33 -11.02 18.66 -10 19 C-4.24063446 19.49507754 -4.24063446 19.49507754 0.9375 17.3125 C3.24583917 14.72436215 3.91378072 13.44877113 4 10 C3.5 7.75 3.5 7.75 2 6 C-0.53770003 4.71745356 -0.53770003 4.71745356 -3 4 C-3 3.34 -3 2.68 -3 2 C-2.01 1.34 -1.02 0.68 0 0 Z " fill="#C3DDA1" transform="translate(74,174)"/>
<path d="M0 0 C9.94547945 1.55177694 17.69468197 8.52186959 24 16 C26.57306195 19.53037174 29.07822372 23.06909397 31 27 C30.67 27.66 30.34 28.32 30 29 C27.9822233 27.25737466 27.03784305 26.10541993 26.125 23.5625 C24.71774378 20.35708306 22.7452642 19.09507005 20 17 C20 16.34 20 15.68 20 15 C19.34 15 18.68 15 18 15 C16.81110068 13.51387585 15.62297893 12.0271122 14.44140625 10.53515625 C12.31495298 8.27039708 9.83298142 7.1858992 7 6 C7 5.34 7 4.68 7 4 C4.69 3.34 2.38 2.68 0 2 C0 1.34 0 0.68 0 0 Z " fill="#C7E4A8" transform="translate(109,116)"/>
<path d="M0 0 C10.78296469 -1.03241151 18.58686058 1.60182422 27 8.4375 C29.42829783 11.54875659 31.28366055 14.435295 33 18 C32.505 19.485 32.505 19.485 32 21 C31.34 21 30.68 21 30 21 C29.70867187 20.33613281 29.41734375 19.67226562 29.1171875 18.98828125 C25.76961037 11.77730536 22.78988382 7.46985303 15.3125 4.25 C10.34767537 2.5436428 5.21004475 2.27774136 0 2 C0 1.34 0 0.68 0 0 Z " fill="#C5E4A4" transform="translate(76,152)"/>
<path d="M0 0 C0.99 0.99 1.98 1.98 3 3 C2.34 3.66 1.68 4.32 1 5 C-0.15884003 12.3894864 1.92668661 17.89002992 6 24 C6 24.99 6 25.98 6 27 C6.99 27.33 7.98 27.66 9 28 C10.38576923 29.62332967 11.72641268 31.28724465 13 33 C10 33 10 33 8.09765625 31.34765625 C0.35876928 22.65811906 -2.4731902 16.45776213 -2.3359375 4.72265625 C-2 2 -2 2 0 0 Z " fill="#C9E0A6" transform="translate(59,0)"/>
<path d="M0 0 C5.42080894 1.10628754 8.42393899 2.83969871 12.421875 6.66015625 C14.07444876 8.23200144 14.07444876 8.23200144 17 9 C17 9.66 17 10.32 17 11 C20.3 11.99 23.6 12.98 27 14 C27 14.66 27 15.32 27 16 C29.64 16.66 32.28 17.32 35 18 C35 18.66 35 19.32 35 20 C29.58628577 19.45693149 25.58118116 17.54485935 20.875 15 C20.13451416 14.60425781 19.39402832 14.20851562 18.63110352 13.80078125 C11.96090225 10.14611334 5.76486435 5.97622202 0 1 C0 0.67 0 0.34 0 0 Z " fill="#C6E4A7" transform="translate(26,186)"/>
<path d="M0 0 C0.99 1.051875 0.99 1.051875 2 2.125 C9.57254399 9.61269756 18.22037301 14.86530242 29 16 C29 16.66 29 17.32 29 18 C31.97 18 34.94 18 38 18 C38 18.33 38 18.66 38 19 C26.75488043 19.91382462 16.00478162 16.82240005 7 10 C6.32710937 9.50113281 5.65421875 9.00226563 4.9609375 8.48828125 C1.31076514 5.60159116 1.31076514 5.60159116 0 4 C0 2.68 0 1.36 0 0 Z " fill="#CBE5AA" transform="translate(38,136)"/>
<path d="M0 0 C0.66 0.33 1.32 0.66 2 1 C0.71170846 3.57658308 -0.41903027 3.78120874 -3 5 C-4.68991979 5.9601817 -6.36209288 6.95355934 -8 8 C-8 8.33 -8 8.66 -8 9 C-4.04 9 -0.08 9 4 9 C4 9.33 4 9.66 4 10 C3.21753906 10.06058594 2.43507813 10.12117188 1.62890625 10.18359375 C0.61699219 10.26738281 -0.39492188 10.35117187 -1.4375 10.4375 C-2.44683594 10.51871094 -3.45617187 10.59992187 -4.49609375 10.68359375 C-6.93640779 10.73211468 -6.93640779 10.73211468 -8 12 C-10.67058851 12.14115161 -13.32432238 12.04247107 -16 12 C-14.4973862 7.97228372 -12.1647269 6.51784741 -8.5625 4.3125 C-7.59441406 3.71050781 -6.62632813 3.10851563 -5.62890625 2.48828125 C-3 1 -3 1 0 0 Z " fill="#CAE4AA" transform="translate(33,40)"/>
<path d="M0 0 C0.33 0.66 0.66 1.32 1 2 C0.34 2 -0.32 2 -1 2 C-1.33 3.32 -1.66 4.64 -2 6 C-1.34 6.33 -0.68 6.66 0 7 C-1.423125 7.3403125 -1.423125 7.3403125 -2.875 7.6875 C-6.10136063 8.68023802 -6.10136063 8.68023802 -7.3125 11.1875 C-8.07167749 14.09470079 -8.07167749 14.09470079 -8.5 17.5 C-8.95320207 20.6724145 -9.68257806 23.10167172 -11 26 C-11.33 26 -11.66 26 -12 26 C-12.47562412 18.81279105 -12.50679424 12.89350016 -8 7 C-5.47309671 4.47309671 -2.82112732 2.19116685 0 0 Z " fill="#C1DFA0" transform="translate(156,107)"/>
<path d="M0 0 C1.20459471 3.61378414 0.64258637 5.24527963 0 9 C-0.26609818 12.62153127 -0.41256311 16.24701895 -0.5625 19.875 C-0.60568359 20.84953125 -0.64886719 21.8240625 -0.69335938 22.828125 C-0.79882274 25.21862802 -0.90094175 27.60922444 -1 30 C-1.33 30 -1.66 30 -2 30 C-2.33 26.7 -2.66 23.4 -3 20 C-3.99 19.67 -4.98 19.34 -6 19 C-5.38221953 16.39392608 -4.75612789 13.79034303 -4.125 11.1875 C-3.95097656 10.44951172 -3.77695312 9.71152344 -3.59765625 8.95117188 C-2.75507489 5.50282963 -1.98714425 2.98071638 0 0 Z " fill="#C3DEA5" transform="translate(6,97)"/>
<path d="M0 0 C2.5633102 2.46077779 4.89478133 5.04139282 7.1875 7.75 C11.05642202 12.18591922 15.15067072 16.62967133 20 20 C21.32 20 22.64 20 24 20 C24 20.66 24 21.32 24 22 C22.35 22.33 20.7 22.66 19 23 C19 22.34 19 21.68 19 21 C18.401875 20.896875 17.80375 20.79375 17.1875 20.6875 C14.68741714 19.90175967 13.62464918 19.03081147 12 17 C12 16.34 12 15.68 12 15 C11.38125 14.9175 10.7625 14.835 10.125 14.75 C7.32494581 13.76174558 7.25886068 12.59640015 6 10 C5.34 9.67 4.68 9.34 4 9 C1.44588386 7.72294193 0.93924769 6.66120179 0 4 C0 2.68 0 1.36 0 0 Z " fill="#C2DEA1" transform="translate(18,164)"/>
<path d="M0 0 C1.0828125 1.11375 1.0828125 1.11375 2.1875 2.25 C9.3583699 9.26151723 16.11227825 11.94811471 26 13 C24.875 14.5625 24.875 14.5625 23 16 C18.22086224 15.78276647 14.29910154 13.99601143 10 12 C8.948125 11.525625 7.89625 11.05125 6.8125 10.5625 C3.22516555 8.56953642 0.64433008 6.73473484 -0.8125 2.8125 C-0.874375 2.214375 -0.93625 1.61625 -1 1 C-0.67 0.67 -0.34 0.34 0 0 Z " fill="#C3E1A0" transform="translate(68,100)"/>
<path d="M0 0 C2 2 2 2 3 5 C3.66 5.66 4.32 6.32 5 7 C5 7.99 5 8.98 5 10 C8.3228692 11.21568385 11.29039554 12.03808466 14.8125 12.5 C15.864375 12.665 16.91625 12.83 18 13 C18.33 13.66 18.66 14.32 19 15 C13.69103723 16.42435587 10.81720928 15.53998308 6 13 C2.72505341 10.74392568 0.17798005 8.88733415 -1 5 C-0.625 2.25 -0.625 2.25 0 0 Z " fill="#C6E3A4" transform="translate(146,131)"/>
<path d="M0 0 C0.8971875 0.309375 0.8971875 0.309375 1.8125 0.625 C-20.63289143 14.79334904 -20.63289143 14.79334904 -28.37890625 13.1640625 C-28.97574219 12.98617187 -29.57257813 12.80828125 -30.1875 12.625 C-29.58421875 12.43164062 -28.9809375 12.23828125 -28.359375 12.0390625 C-27.56015625 11.77867187 -26.7609375 11.51828125 -25.9375 11.25 C-25.14859375 10.99476563 -24.3596875 10.73953125 -23.546875 10.4765625 C-20.60534507 9.41488448 -17.94002678 8.02771941 -15.1875 6.5546875 C-14.5275 6.20664063 -13.8675 5.85859375 -13.1875 5.5 C-12.5275 5.14679688 -11.8675 4.79359375 -11.1875 4.4296875 C-9.1875 3.625 -9.1875 3.625 -5.1875 3.625 C-5.1875 2.965 -5.1875 2.305 -5.1875 1.625 C-2.1875 -0.375 -2.1875 -0.375 0 0 Z " fill="#C5DEA6" transform="translate(137.1875,195.375)"/>
<path d="M0 0 C0.66 0.33 1.32 0.66 2 1 C-1.36300841 5.30885453 -4.96081826 8.85594541 -9.1328125 12.38671875 C-10.83703768 13.85919783 -12.43024216 15.38636694 -14 17 C-14 11.83728079 -12.37434862 10.6313041 -9.0234375 6.97265625 C-6.22238547 4.24190089 -3.27264562 2.13723795 0 0 Z " fill="#C4DFA4" transform="translate(38,61)"/>
<path d="M0 0 C2.08770869 3.13156303 2.30633317 4.31301186 2.5625 7.9375 C2.79448389 11.07638408 3.14829153 13.96622852 4 17 C3.34 17 2.68 17 2 17 C1.67 16.34 1.34 15.68 1 15 C0.01 15 -0.98 15 -2 15 C-2 11.04 -2 7.08 -2 3 C-1.34 3 -0.68 3 0 3 C0 2.01 0 1.02 0 0 Z " fill="#BDDF9A" transform="translate(2,114)"/>
<path d="M0 0 C0.7425 0.763125 1.485 1.52625 2.25 2.3125 C3.1575 3.199375 4.065 4.08625 5 5 C5.5775 5.61875 6.155 6.2375 6.75 6.875 C9.48434779 8.24217389 10.53779919 7.87838053 13.5 7.375 C15.87109375 7.00390625 15.87109375 7.00390625 18 7 C20.5625 9.3125 20.5625 9.3125 22 12 C22 12.66 22 13.32 22 14 C21.34 14 20.68 14 20 14 C20 13.01 20 12.02 20 11 C16.6971697 10.35554531 13.68716964 10 10.3125 10 C7 10 7 10 4 9 C2.8125 6.4375 2.8125 6.4375 2 4 C1.34 4 0.68 4 0 4 C0 2.68 0 1.36 0 0 Z " fill="#C6DFAA" transform="translate(126,61)"/>
<path d="M0 0 C2.046875 3.71875 2.046875 3.71875 1.625 6.25 C1.41875 6.8275 1.2125 7.405 1 8 C0.34 8 -0.32 8 -1 8 C-1.12375 8.680625 -1.2475 9.36125 -1.375 10.0625 C-2.09100877 13.4277412 -3.02945125 16.70013425 -4 20 C-4.99 20 -5.98 20 -7 20 C-5.41429736 12.79226072 -3.60251779 6.45968707 0 0 Z " fill="#C6E49F" transform="translate(21,78)"/>
<path d="M0 0 C0.33 0.66 0.66 1.32 1 2 C1.66 2.33 2.32 2.66 3 3 C1.93495344 8.59149444 -0.67631858 10.75112358 -5.02734375 13.99609375 C-5.67832031 14.32738281 -6.32929688 14.65867187 -7 15 C-7.99 14.67 -8.98 14.34 -10 14 C-9.34 12.35 -8.68 10.7 -8 9 C-7.67 9.66 -7.34 10.32 -7 11 C-2.4253583 8.47605975 -1.47943448 4.71849937 0 0 Z " fill="#C9E3AB" transform="translate(145,80)"/>
<path d="M0 0 C5.131309 1.61269712 8.24811271 4.49730388 11.3125 8.875 C12.30302342 11.93661784 12.12270626 14.80963735 12 18 C9.72772131 16.2408165 8.16363756 14.93034387 7.65234375 12.0234375 C7.60207031 11.31445312 7.55179688 10.60546875 7.5 9.875 C7.335 8.59625 7.17 7.3175 7 6 C5.07935207 4.4100567 5.07935207 4.4100567 3 4 C3 3.34 3 2.68 3 2 C2.01 2 1.02 2 0 2 C0 1.34 0 0.68 0 0 Z " fill="#C1DCA2" transform="translate(47,166)"/>
<path d="M0 0 C0.99 0.33 1.98 0.66 3 1 C2.67257813 1.53109375 2.34515625 2.0621875 2.0078125 2.609375 C0.7357011 5.62694157 0.8040637 7.98693023 0.875 11.25 C0.89304687 12.32765625 0.91109375 13.4053125 0.9296875 14.515625 C0.95289062 15.33546875 0.97609375 16.1553125 1 17 C0.01 17 -0.98 17 -2 17 C-3.54038006 12.37885981 -3.78627237 6.64430815 -2 2 C-1.34 1.34 -0.68 0.68 0 0 Z " fill="#C2E2A4" transform="translate(67,81)"/>
<path d="M0 0 C2.70740662 2.70740662 3.1010554 5.2626766 4.125 8.9375 C4.47820313 10.18402344 4.83140625 11.43054688 5.1953125 12.71484375 C6 16 6 16 6 19 C3 18 3 18 1.8515625 15.86328125 C0.87869952 12.59214106 0.5813351 9.59202908 0.375 6.1875 C0.30023437 5.02605469 0.22546875 3.86460937 0.1484375 2.66796875 C0.09945313 1.78753906 0.05046875 0.90710938 0 0 Z " fill="#C0DAA1" transform="translate(5,132)"/>
<path d="M0 0 C2 0.875 2 0.875 3.25 2.9375 C4.24576232 6.8375691 4.32523889 9.84203776 4 13.875 C2.48046875 15.6171875 2.48046875 15.6171875 1 16.875 C1.02320313 16.11574219 1.04640625 15.35648438 1.0703125 14.57421875 C1.08835937 13.58035156 1.10640625 12.58648437 1.125 11.5625 C1.14820313 10.57636719 1.17140625 9.59023437 1.1953125 8.57421875 C1.20682639 5.65093473 1.20682639 5.65093473 -1 2.875 C-1.99 2.215 -2.98 1.555 -4 0.875 C-2 -0.125 -2 -0.125 0 0 Z " fill="#C5E0A0" transform="translate(41,167.125)"/>
<path d="M0 0 C0.99 0.33 1.98 0.66 3 1 C3.7136591 3.31939207 4.3747292 5.65523449 5 8 C5.556875 8.9075 6.11375 9.815 6.6875 10.75 C7.120625 11.4925 7.55375 12.235 8 13 C7.67 13.99 7.34 14.98 7 16 C0.48063781 6.77448747 0.48063781 6.77448747 -1 1 C-0.67 0.67 -0.34 0.34 0 0 Z " fill="#C1DCA3" transform="translate(30,122)"/>
<path d="M0 0 C6.52307692 0.49230769 6.52307692 0.49230769 8.9375 3.0625 C9.288125 3.701875 9.63875 4.34125 10 5 C8.515 7.475 8.515 7.475 7 10 C5.68 9.34 4.36 8.68 3 8 C4.32 7.67 5.64 7.34 7 7 C4.9413783 3.91206745 4.1446688 3.52161393 1 2 C0.67 1.34 0.34 0.68 0 0 Z " fill="#C4E0A3" transform="translate(108,52)"/>
<path d="M0 0 C2.33944736 0.28730055 4.6739143 0.61936779 7 1 C7 1.66 7 2.32 7 3 C3.7 3.33 0.4 3.66 -3 4 C-3 3.34 -3 2.68 -3 2 C-7.29 2 -11.58 2 -16 2 C-16 1.67 -16 1.34 -16 1 C-14.92878906 1.01160156 -13.85757813 1.02320313 -12.75390625 1.03515625 C-11.35677257 1.04453299 -9.95963701 1.05363331 -8.5625 1.0625 C-7.85544922 1.07087891 -7.14839844 1.07925781 -6.41992188 1.08789062 C-4.61306441 1.09653588 -2.80612397 1.05220011 -1 1 C-0.67 0.67 -0.34 0.34 0 0 Z " fill="#C3E3A0" transform="translate(99,207)"/>
<path d="M0 0 C0 0.99 0 1.98 0 3 C-1.4562545 3.67119549 -2.91507867 4.33681807 -4.375 5 C-5.59316406 5.556875 -5.59316406 5.556875 -6.8359375 6.125 C-9 7 -9 7 -11 7 C-11 5.35 -11 3.7 -11 2 C-8.03 2.495 -8.03 2.495 -5 3 C-5 2.34 -5 1.68 -5 1 C-2 0 -2 0 0 0 Z " fill="#BFDAA1" transform="translate(136,82)"/>
<path d="M0 0 C2 3 2 3 1.375 6.5 C-0.00900129 10.02291238 -0.78198296 11.17645701 -4 13 C-4 9.70342144 -3.25666731 7.83635572 -2 4.8125 C-1.62875 3.91144531 -1.2575 3.01039063 -0.875 2.08203125 C-0.441875 1.05142578 -0.441875 1.05142578 0 0 Z " fill="#C4E2A2" transform="translate(106,186)"/>
<path d="M0 0 C0.66 0.33 1.32 0.66 2 1 C2 1.33 2 1.66 2 2 C5.96 2 9.92 2 14 2 C14 2.33 14 2.66 14 3 C13.21753906 3.06058594 12.43507813 3.12117188 11.62890625 3.18359375 C10.11103516 3.30927734 10.11103516 3.30927734 8.5625 3.4375 C7.55316406 3.51871094 6.54382813 3.59992187 5.50390625 3.68359375 C3.06359221 3.73211468 3.06359221 3.73211468 2 5 C0.33382885 5.04063832 -1.33388095 5.042721 -3 5 C-3 4.01 -3 3.02 -3 2 C-2.01 1.34 -1.02 0.68 0 0 Z " fill="#C8E99E" transform="translate(23,47)"/>
<path d="M0 0 C-1.36911804 3.1489715 -2.8752136 5.0478487 -5.5 7.25 C-6.41265625 8.03117188 -6.41265625 8.03117188 -7.34375 8.828125 C-9 10 -9 10 -11 10 C-9.63088196 6.8510285 -8.1247864 4.9521513 -5.5 2.75 C-4.8915625 2.22921875 -4.283125 1.7084375 -3.65625 1.171875 C-2 0 -2 0 0 0 Z " fill="#CCE4A6" transform="translate(150,185)"/>
<path d="M0 0 C0.33 0.66 0.66 1.32 1 2 C0.67 2.99 0.34 3.98 0 5 C-0.66 5 -1.32 5 -2 5 C-2 5.66 -2 6.32 -2 7 C-6.86486486 12.54054054 -6.86486486 12.54054054 -11 13 C-11 12.34 -11 11.68 -11 11 C-9.35546875 9.4140625 -9.35546875 9.4140625 -7.1875 7.625 C-4.35520187 5.2828081 -2.10737561 3.01813415 0 0 Z " fill="#BFDBA2" transform="translate(151,172)"/>
<path d="M0 0 C0.77085938 -0.01417969 1.54171875 -0.02835938 2.3359375 -0.04296875 C4.84334888 0.20948393 6.45761902 0.93556533 8.625 2.1875 C8.295 2.8475 7.965 3.5075 7.625 4.1875 C6.965 3.8575 6.305 3.5275 5.625 3.1875 C3.58444995 3.11684383 1.54165743 3.10328024 -0.5 3.125 C-1.59570312 3.13402344 -2.69140625 3.14304688 -3.8203125 3.15234375 C-5.08488281 3.16974609 -5.08488281 3.16974609 -6.375 3.1875 C-6.375 2.5275 -6.375 1.8675 -6.375 1.1875 C-4.04904054 0.02452027 -2.58776769 0.02149309 0 0 Z " fill="#B7D899" transform="translate(81.375,172.8125)"/>
<path d="M0 0 C1.98 1.65 3.96 3.3 6 5 C1.69230769 8.93846154 1.69230769 8.93846154 -1.8125 9.25 C-2.534375 9.1675 -3.25625 9.085 -4 9 C-1 7 -1 7 2 7 C1.65555119 4.52733235 1.65555119 4.52733235 1 2 C0.34 1.67 -0.32 1.34 -1 1 C-0.67 0.67 -0.34 0.34 0 0 Z " fill="#C5E3A8" transform="translate(45,51)"/>
<path d="M0 0 C4.29 0.99 8.58 1.98 13 3 C13 3.66 13 4.32 13 5 C11.39504433 4.88557539 9.79101881 4.75805306 8.1875 4.625 C7.29417969 4.55539063 6.40085937 4.48578125 5.48046875 4.4140625 C3 4 3 4 0 2 C0 1.34 0 0.68 0 0 Z " fill="#C6E4A6" transform="translate(85,26)"/>
<path d="M0 0 C0.66 0.66 1.32 1.32 2 2 C1.54385965 9.18421053 1.54385965 9.18421053 -1 13 C-1.02696365 11.20841511 -1.04637917 9.41671527 -1.0625 7.625 C-1.07410156 6.62726563 -1.08570313 5.62953125 -1.09765625 4.6015625 C-1 2 -1 2 0 0 Z " fill="#C3DDA7" transform="translate(141,168)"/>
<path d="M0 0 C1.051875 -0.02126953 1.051875 -0.02126953 2.125 -0.04296875 C4 0.1875 4 0.1875 6 2.1875 C1.915021 2.73216387 -1.8725485 3.1875 -6 3.1875 C-6 2.5275 -6 1.8675 -6 1.1875 C-3.77109005 0.07304502 -2.46944894 0.02269714 0 0 Z " fill="#BBD199" transform="translate(41,164.8125)"/>
<path d="M0 0 C1.32 0 2.64 0 4 0 C4.99 1.98 5.98 3.96 7 6 C5.68 6.33 4.36 6.66 3 7 C2.01 4.69 1.02 2.38 0 0 Z " fill="#BFE691" transform="translate(7,155)"/>
<path d="M0 0 C0.66 0.33 1.32 0.66 2 1 C2.05422947 2.4370809 2.09289723 3.87475462 2.125 5.3125 C2.14820313 6.11300781 2.17140625 6.91351563 2.1953125 7.73828125 C2 10 2 10 0 13 C-1.28571429 4.57142857 -1.28571429 4.57142857 0 0 Z " fill="#C4E19C" transform="translate(14,111)"/>
<path d="M0 0 C0.66 0 1.32 0 2 0 C2.33 0.66 2.66 1.32 3 2 C5.64 2 8.28 2 11 2 C11 2.99 11 3.98 11 5 C4.64948454 5.36637589 4.64948454 5.36637589 1.5625 3.625 C0 2 0 2 0 0 Z " fill="#C0DEA3" transform="translate(114,77)"/>
<path d="M0 0 C1.32 0 2.64 0 4 0 C4 0.99 4 1.98 4 3 C3.34 3 2.68 3 2 3 C2.33 4.98 2.66 6.96 3 9 C2.01 8.67 1.02 8.34 0 8 C0 5.36 0 2.72 0 0 Z " fill="#C2E69B" transform="translate(98,19)"/>
<path d="M0 0 C1.32 0 2.64 0 4 0 C4 0.66 4 1.32 4 2 C6.64 2.66 9.28 3.32 12 4 C12 4.66 12 5.32 12 6 C7.43545749 5.45660208 4.0271824 4.20536179 0 2 C0 1.34 0 0.68 0 0 Z " fill="#C3DDA5" transform="translate(49,200)"/>
<path d="M0 0 C6.75 1.75 6.75 1.75 9 4 C8.67 4.99 8.34 5.98 8 7 C6.66382648 6.02471263 5.3311249 5.04466681 4 4.0625 C3.2575 3.51722656 2.515 2.97195312 1.75 2.41015625 C1.1725 1.94480469 0.595 1.47945312 0 1 C0 0.67 0 0.34 0 0 Z " fill="#CCEAAD" transform="translate(26,186)"/>
<path d="M0 0 C1.45047396 2.90094791 0.45356803 4.55972596 -0.4375 7.625 C-0.72496094 8.62789062 -1.01242188 9.63078125 -1.30859375 10.6640625 C-1.53675781 11.43492187 -1.76492187 12.20578125 -2 13 C-2.66 13 -3.32 13 -4 13 C-4.33 11.68 -4.66 10.36 -5 9 C-4.34 9 -3.68 9 -3 9 C-2.01 6.03 -1.02 3.06 0 0 Z " fill="#BDD0A6" transform="translate(20,117)"/>
<path d="M0 0 C1.14926266 0.95421808 2.29430541 1.91352045 3.4375 2.875 C4.07558594 3.40867187 4.71367188 3.94234375 5.37109375 4.4921875 C7 6 7 6 8 8 C4.21479387 7.45925627 2.40822445 5.92427254 0 3 C0 2.01 0 1.02 0 0 Z " fill="#C3DF9D" transform="translate(66,12)"/>
<path d="M0 0 C0.33 0 0.66 0 1 0 C1 1.98 1 3.96 1 6 C0.01 6.33 -0.98 6.66 -2 7 C-2 7.99 -2 8.98 -2 10 C-2.99 9.67 -3.98 9.34 -5 9 C-3.35 6.03 -1.7 3.06 0 0 Z " fill="#C0DBA3" transform="translate(161,156)"/>
<path d="M0 0 C2.9719385 1.12451727 5.33440687 2.22293791 8 4 C7.01 4.33 6.02 4.66 5 5 C4.67 5.66 4.34 6.32 4 7 C3.67 6.34 3.34 5.68 3 5 C3.33 4.34 3.66 3.68 4 3 C2.35 2.67 0.7 2.34 -1 2 C-0.67 1.34 -0.34 0.68 0 0 Z " fill="#C2E3A4" transform="translate(77,22)"/>
<path d="M0 0 C0.66 0 1.32 0 2 0 C2.66 3.3 3.32 6.6 4 10 C3.01 9.67 2.02 9.34 1 9 C0.67 6.03 0.34 3.06 0 0 Z " fill="#C6E49F" transform="translate(2,141)"/>
<path d="M0 0 C1.15941038 3.47823115 0.70820884 5.45895578 0 9 C-0.99 9 -1.98 9 -3 9 C-2.5020163 5.26512223 -2.12508244 3.18762365 0 0 Z " fill="#C7D6AD" transform="translate(6,97)"/>
<path d="M0 0 C0.99 0.33 1.98 0.66 3 1 C3.33 3.31 3.66 5.62 4 8 C3.01 7.67 2.02 7.34 1 7 C0.67 4.69 0.34 2.38 0 0 Z " fill="#C6DEA6" transform="translate(123,49)"/>
<path d="M0 0 C0.66 0.66 1.32 1.32 2 2 C1.195625 2.45375 0.39125 2.9075 -0.4375 3.375 C-3.08856572 4.74725665 -3.08856572 4.74725665 -4 7 C-4.99 7 -5.98 7 -7 7 C-5.54744301 3.17053157 -3.57104439 1.87949705 0 0 Z " fill="#C3D9A7" transform="translate(24,45)"/>
<path d="M0 0 C0.66 0 1.32 0 2 0 C2 0.99 2 1.98 2 3 C3.43750191 4.68798827 3.43750191 4.68798827 5 6 C3.68 6.33 2.36 6.66 1 7 C0.67 4.69 0.34 2.38 0 0 Z " fill="#C0DBA8" transform="translate(79,90)"/>
<path d="M0 0 C0.99 0 1.98 0 3 0 C3.625 1.8125 3.625 1.8125 4 4 C3.01 5.485 3.01 5.485 2 7 C0 5 0 5 -1 2 C-0.67 1.34 -0.34 0.68 0 0 Z " fill="#BEE69D" transform="translate(110,79)"/>
<path d="M0 0 C4.875 4.625 4.875 4.625 6 8 C4.68 7.67 3.36 7.34 2 7 C1.34 4.69 0.68 2.38 0 0 Z " fill="#CCE6B5" transform="translate(107,28)"/>
<path d="M0 0 C0.66 0 1.32 0 2 0 C2.66 2.31 3.32 4.62 4 7 C1.525 6.01 1.525 6.01 -1 5 C-0.67 3.35 -0.34 1.7 0 0 Z " fill="#CADEAE" transform="translate(100,14)"/>
<path d="M0 0 C0.66 1.32 1.32 2.64 2 4 C0.68 5.32 -0.64 6.64 -2 8 C-2.33 7.34 -2.66 6.68 -3 6 C-2.06553465 3.96855359 -1.06775224 1.96466413 0 0 Z " fill="#C2DDA5" transform="translate(21,78)"/>
</svg>
